<?xml version="1.0" standalone="no"?>
<!DOCTYPE svg PUBLIC "-//W3C//DTD SVG 20010904//EN"
 "http://www.w3.org/TR/2001/REC-SVG-20010904/DTD/svg10.dtd">
<svg version="1.0" xmlns="http://www.w3.org/2000/svg"
 width="1200.000000pt" height="1200.000000pt" viewBox="0 0 1200.000000 1200.000000"
 preserveAspectRatio="xMidYMid meet">

<g transform="translate(0.000000,1200.000000) scale(0.100000,-0.100000)"
fill="#000000" stroke="none">
<path d="M23 6968 c-4 -13 -6 -440 -4 -950 2 -667 0 -928 -8 -928 -8 0 -11
-446 -11 -1590 l0 -1590 3382 0 c1861 0 4561 -3 6001 -7 l2617 -6 0 2302 0
2302 -22 8 c-17 6 -25 4 -32 -6 -6 -12 -10 -12 -16 -3 -4 7 -10 -1 -14 -20 -4
-23 -10 -31 -21 -26 -10 3 -15 -1 -15 -14 0 -10 -9 -25 -19 -32 -11 -8 -23
-31 -27 -52 -6 -34 -8 -37 -19 -22 -11 15 -13 12 -19 -19 -4 -20 -11 -33 -16
-30 -12 8 -40 -5 -40 -19 0 -22 -55 -96 -67 -91 -9 3 -13 -5 -13 -24 0 -15 -9
-38 -19 -50 l-19 -22 -7 22 c-7 21 -8 20 -19 -12 -14 -39 -45 -79 -62 -79 -6
0 -17 7 -25 16 -11 14 -14 14 -23 2 -19 -25 -50 -37 -69 -27 -13 8 -17 6 -17
-5 0 -8 -16 -20 -36 -26 -19 -7 -38 -18 -41 -26 -3 -8 -14 -14 -24 -14 -12 0
-23 -10 -29 -25 -6 -17 -14 -23 -25 -18 -9 3 -29 -4 -45 -16 -16 -11 -36 -21
-44 -21 -8 0 -18 -9 -21 -20 -4 -14 -15 -20 -36 -20 -22 0 -32 -7 -41 -26 -8
-18 -17 -24 -30 -20 -13 3 -22 -3 -28 -19 -6 -17 -20 -25 -49 -30 -34 -6 -41
-11 -41 -30 0 -30 -14 -38 -58 -37 -26 1 -35 -3 -39 -19 -4 -13 -11 -18 -23
-14 -14 4 -19 0 -22 -17 -2 -16 -9 -23 -25 -22 -14 0 -25 -7 -29 -19 -4 -14
-12 -17 -30 -13 -30 8 -72 -18 -85 -52 -6 -15 -15 -22 -24 -18 -9 3 -15 0 -15
-9 0 -18 -5 -18 -29 -5 -16 8 -20 5 -25 -21 -5 -25 -9 -29 -29 -23 -17 4 -26
1 -30 -10 -4 -9 -18 -16 -32 -16 -18 0 -28 -7 -35 -24 -13 -35 -26 -39 -62
-22 -17 9 -40 14 -50 10 -10 -3 -18 -1 -18 5 0 5 -19 9 -42 9 -75 -1 -128 9
-148 27 -13 12 -27 15 -49 10 -23 -5 -33 -3 -37 9 -3 9 -11 13 -16 10 -6 -4
-14 0 -19 7 -6 11 -11 11 -21 1 -17 -17 -23 -15 -36 13 -10 21 -16 24 -30 16
-24 -13 -103 3 -119 25 -11 14 -17 15 -38 6 -30 -14 -75 0 -75 23 0 17 -50 21
-66 5 -14 -14 -86 6 -105 29 -12 15 -19 17 -28 8 -8 -8 -16 -6 -32 9 -18 18
-27 20 -66 13 -49 -10 -63 -6 -63 17 0 22 -41 34 -65 19 -21 -13 -57 -6 -69
14 -4 6 -13 8 -21 4 -9 -3 -22 0 -30 7 -12 10 -17 7 -26 -14 -9 -19 -17 -25
-31 -20 -12 4 -18 0 -18 -11 0 -13 -7 -16 -29 -13 -24 3 -32 0 -41 -20 -9 -21
-15 -23 -45 -18 -28 6 -35 4 -35 -9 0 -8 -8 -15 -19 -15 -10 0 -24 -7 -31 -15
-7 -9 -29 -15 -55 -15 -31 0 -49 -7 -69 -25 -14 -13 -45 -29 -69 -36 -23 -6
-53 -22 -66 -36 -15 -14 -32 -22 -43 -20 -9 3 -22 -1 -29 -9 -7 -8 -21 -11
-34 -8 -16 4 -29 -1 -42 -15 -11 -12 -27 -19 -35 -16 -15 6 -48 -18 -48 -36 0
-5 -16 -9 -35 -9 -19 0 -35 -5 -35 -11 0 -6 -9 -9 -20 -6 -11 3 -22 1 -25 -4
-3 -5 -24 -13 -45 -19 -22 -6 -40 -15 -40 -20 0 -6 -16 -10 -36 -10 -30 0 -37
-4 -45 -30 -12 -32 -27 -38 -47 -18 -10 10 -15 10 -22 -2 -7 -11 -13 -12 -35
-2 -24 11 -27 10 -32 -8 -6 -22 -18 -26 -28 -10 -5 8 -11 7 -20 0 -8 -7 -18
-9 -23 -6 -6 3 -15 -1 -22 -9 -14 -17 -56 -20 -65 -5 -11 17 -43 11 -50 -10
-7 -23 -25 -26 -44 -7 -10 10 -16 8 -28 -10 -17 -25 -66 -32 -79 -12 -10 16
-72 4 -127 -25 -27 -15 -68 -27 -100 -29 -59 -4 -74 -10 -100 -44 -10 -13 -27
-23 -37 -23 -9 0 -23 -6 -29 -14 -6 -7 -22 -11 -35 -9 -17 4 -26 0 -30 -14 -5
-17 -21 -22 -86 -24 -14 0 -32 -7 -42 -15 -9 -9 -22 -14 -30 -13 -34 4 -50 -3
-68 -33 -11 -18 -23 -33 -27 -33 -5 0 -13 -3 -19 -7 -6 -4 -25 -4 -41 1 -24 7
-32 5 -41 -10 -7 -11 -21 -19 -32 -19 -11 0 -20 -7 -20 -15 0 -10 -10 -15 -30
-15 -18 0 -33 -6 -36 -15 -4 -9 -19 -15 -35 -15 -16 0 -29 -5 -29 -10 0 -25
-33 -22 -54 5 -24 30 -79 42 -104 22 -10 -8 -14 -5 -19 12 -4 15 -11 20 -23
16 -10 -3 -21 -1 -25 5 -5 8 -13 6 -25 -5 -20 -18 -40 -13 -40 9 0 14 -56 30
-72 20 -5 -3 -18 2 -28 11 -16 15 -22 16 -35 5 -13 -11 -19 -10 -35 5 -13 12
-27 15 -45 11 -18 -5 -27 -2 -31 9 -4 9 -13 13 -24 10 -11 -3 -20 1 -24 10 -4
12 -10 14 -26 5 -12 -6 -26 -7 -37 -1 -62 31 -70 33 -92 20 -17 -11 -25 -11
-41 -1 -11 6 -26 12 -34 12 -8 0 -21 9 -29 19 -11 17 -22 19 -65 15 -44 -4
-54 -2 -59 13 -10 28 -26 33 -44 17 -11 -10 -19 -12 -23 -5 -4 6 -20 8 -35 5
-24 -5 -32 -1 -46 20 -18 27 -53 34 -73 14 -9 -9 -17 -5 -36 15 -29 31 -34 32
-57 11 -15 -14 -19 -13 -44 10 -23 21 -30 23 -51 14 -20 -10 -27 -8 -38 7 -11
16 -17 17 -29 7 -12 -11 -18 -8 -34 13 -16 22 -22 25 -44 17 -18 -7 -30 -6
-43 3 -14 10 -24 11 -42 3 -20 -9 -29 -7 -60 17 -31 24 -39 26 -61 16 -14 -7
-27 -10 -28 -9 -1 2 -8 13 -14 26 -11 20 -17 22 -62 16 -48 -6 -49 -6 -49 20
0 26 -2 27 -64 30 -11 1 -21 7 -24 14 -2 6 -17 12 -33 12 -19 0 -29 5 -29 15
0 8 -7 15 -15 15 -8 0 -19 9 -25 20 -7 13 -21 20 -40 20 -19 0 -30 5 -30 14 0
24 -26 39 -49 26 -18 -9 -21 -8 -21 9 0 17 -5 20 -29 15 -23 -5 -32 -2 -43 15
-8 14 -23 21 -42 21 -21 0 -39 10 -62 35 -20 22 -41 35 -56 35 -17 0 -29 8
-36 26 -9 19 -17 24 -32 19 -14 -5 -20 -2 -20 9 0 9 -8 16 -18 16 -10 0 -23 5
-30 12 -8 8 -15 8 -25 -1 -12 -9 -16 -7 -20 10 -5 17 -11 21 -34 16 -15 -3
-40 1 -56 9 -15 8 -37 12 -47 9 -15 -5 -23 0 -32 20 -7 16 -17 24 -26 20 -8
-3 -23 2 -33 11 -12 10 -28 15 -45 11 -20 -3 -32 1 -45 16 -14 19 -20 20 -43
9 -23 -10 -29 -9 -47 9 -16 16 -23 18 -35 8 -11 -9 -19 -6 -39 15 -17 19 -31
25 -44 21 -11 -3 -22 -1 -26 5 -8 13 -92 13 -100 0 -10 -16 -37 -11 -61 11
-20 19 -25 20 -37 7 -12 -12 -27 -13 -79 -5 -56 9 -68 7 -105 -12 -45 -23
-105 -27 -148 -11 -17 7 -24 7 -20 0 8 -13 3 -13 -33 5 -26 13 -34 14 -52 3
-19 -11 -24 -10 -37 10 -19 27 -36 28 -71 3 -15 -11 -45 -22 -67 -26 -21 -4
-55 -15 -75 -25 -19 -10 -87 -30 -150 -45 -63 -15 -133 -34 -155 -42 -22 -8
-83 -19 -135 -23 -64 -6 -130 -21 -199 -45 -105 -35 -120 -35 -121 2 0 17 -43
27 -91 20 -33 -4 -42 -1 -59 20 -11 14 -20 31 -20 37 -1 25 -89 181 -140 246
-95 121 -433 438 -555 520 -59 40 -145 107 -189 150 -67 64 -102 88 -202 138
-151 76 -298 164 -343 205 -18 18 -46 51 -61 75 -27 41 -29 42 -37 20z"/>
<path d="M5787 684 c-4 -4 -7 -18 -7 -31 0 -25 -14 -28 -113 -23 -43 2 -51 -1
-82 -35 -30 -31 -35 -33 -35 -16 0 33 -40 52 -101 49 -51 -3 -54 -5 -57 -31
l-3 -28 -29 31 c-27 29 -32 31 -97 28 l-68 -3 -3 -111 c-2 -90 0 -113 13 -124
16 -13 20 -8 27 35 3 17 10 19 51 16 41 -2 51 1 76 27 l30 29 3 -26 c2 -18 9
-26 23 -26 18 0 21 8 25 70 l5 70 30 0 c30 0 30 0 35 -70 4 -56 8 -70 23 -73
14 -3 17 4 17 35 l0 38 25 -30 c21 -26 22 -32 9 -41 -13 -10 -12 -16 9 -40 20
-23 33 -29 66 -29 65 0 85 27 91 127 3 52 9 83 18 86 8 3 12 -12 12 -52 0 -71
23 -99 78 -94 l37 3 5 70 c4 60 8 70 25 73 16 3 18 1 8 -9 -17 -17 -16 -54 2
-89 19 -37 43 -50 93 -50 32 0 45 6 65 29 l24 29 26 -29 c21 -24 33 -29 69
-29 64 1 92 29 97 100 6 89 -137 129 -179 50 -10 -19 -12 -18 -38 11 -32 36
-86 42 -127 15 -22 -14 -25 -15 -25 -1 0 12 -13 15 -59 15 -57 0 -60 1 -63 27
-3 26 -18 39 -31 27z m-457 -109 c7 -8 13 -26 13 -40 0 -34 -20 -55 -53 -55
-33 0 -52 21 -52 55 0 34 19 55 52 55 15 0 33 -7 40 -15z m371 -9 c17 -36 4
-74 -28 -82 -32 -8 -55 5 -67 39 -20 56 71 97 95 43z m149 -32 c0 -40 -4 -55
-12 -52 -14 5 -23 70 -14 94 12 32 26 11 26 -42z m210 41 c11 -13 5 -15 -40
-15 -45 0 -51 2 -40 15 7 8 25 15 40 15 15 0 33 -7 40 -15z m190 0 c11 -13 6
-15 -34 -15 -43 0 -55 7 -39 23 12 13 60 7 73 -8z m-185 -75 c-20 -22 -64 -27
-83 -8 -22 22 -12 28 45 28 55 0 56 0 38 -20z m205 16 c0 -3 -7 -12 -16 -20
-18 -19 -65 -21 -82 -4 -22 22 -13 28 43 28 30 0 55 -2 55 -4z m-584 -91 c-11
-8 -23 -15 -26 -15 -3 0 -15 7 -26 15 -18 13 -16 14 26 14 42 0 44 -1 26 -14z"/>
<path d="M6418 621 c-21 -10 -37 -29 -46 -53 -13 -33 -12 -41 4 -75 32 -64 95
-81 139 -37 15 15 17 15 34 0 26 -24 96 -21 119 4 l19 21 6 -21 c4 -14 12 -21
24 -18 15 3 19 16 23 73 4 63 7 70 27 73 21 3 22 -1 25 -70 3 -65 5 -73 23
-73 18 0 20 8 23 65 2 46 8 69 19 77 29 22 43 -3 43 -78 0 -55 3 -69 15 -69
12 0 15 16 15 84 0 55 -4 87 -12 93 -7 6 -60 11 -117 11 -95 1 -104 0 -108
-19 -6 -20 -6 -20 -29 1 -28 27 -87 29 -115 4 -17 -15 -21 -16 -36 -2 -28 24
-60 27 -95 9z m228 -56 c3 -12 4 -36 2 -51 -2 -23 -9 -30 -31 -32 -38 -5 -57
14 -57 54 0 58 72 82 86 29z m-149 3 c26 -25 30 -46 8 -54 -8 -4 -15 -12 -15
-19 0 -8 -9 -17 -21 -20 -29 -10 -59 21 -59 60 0 56 44 73 87 33z"/>
<path d="M6320 456 c0 -21 21 -31 30 -15 5 7 6 17 4 21 -9 14 -34 9 -34 -6z"/>
</g>
</svg>
